<?xml version="1.0" encoding="utf-8"?>
<!-- Generator: Adobe Illustrator 23.1.0, SVG Export Plug-In . SVG Version: 6.00 Build 0)  -->
<svg version="1.1" id="Layer_1" xmlns="http://www.w3.org/2000/svg" xmlns:xlink="http://www.w3.org/1999/xlink" x="0px" y="0px"
	 viewBox="0 0 1000 1000" style="enable-background:new 0 0 1000 1000;" xml:space="preserve">
<style type="text/css">
	.st0{fill:url(#SVGID_1_);}
	.st1{fill:#CFEEFF;}
	.st2{fill:none;stroke:#2E3192;stroke-width:2.1585;stroke-miterlimit:10;}
	.st3{opacity:0.59;fill:#D7F1FF;}
	.st4{fill:url(#SVGID_2_);}
	.st5{fill:#76AFD6;}
	.st6{fill:#69D1A9;}
	.st7{fill:#FC6590;}
	.st8{fill:#FFFFFF;}
	.st9{fill:#5DC198;}
	.st10{fill:#EA5C8B;}
	.st11{fill:#DCE4FF;}
	.st12{fill:#96C9F4;}
	.st13{fill:#E4DCD5;}
	.st14{fill:#FFCD6A;}
	.st15{fill:#3E454A;}
</style>
<g>
	<g>
		<linearGradient id="SVGID_1_" gradientUnits="userSpaceOnUse" x1="332.3861" y1="544.1575" x2="929.8521" y2="544.1575">
			<stop  offset="0" style="stop-color:#FAF4F6"/>
			<stop  offset="1" style="stop-color:#E1F4FF"/>
		</linearGradient>
		<polygon class="st0" points="929.9,243.7 843.6,844.6 332.4,844.6 340.6,787.1 418.7,243.7 		"/>
		<polygon class="st1" points="941,256.5 854.7,857.4 343.5,857.4 332.4,844.6 843.6,844.6 929.9,243.7 		"/>
		<path class="st2" d="M763,176.4l-0.3,2.4C762.8,177.9,762.9,177.2,763,176.4z"/>
		<polygon class="st3" points="869.3,243.7 791.3,787.1 340.6,787.1 418.7,243.7 		"/>
		<linearGradient id="SVGID_2_" gradientUnits="userSpaceOnUse" x1="300.1658" y1="102.3185" x2="630.7754" y2="533.0559">
			<stop  offset="0" style="stop-color:#C8E9FC"/>
			<stop  offset="1" style="stop-color:#A4D3F4"/>
		</linearGradient>
		<path class="st4" d="M893.7,149.7c-34.5,0-57.4,24.6-62.5,55c0,0,0,0,0,0c-0.1,0.8-0.2,1.6-0.3,2.4c0,0,0,0,0,0l-78.2,544.6H241.4
			l77.5-539.6l2.1-14.6c1.4-9.5,5.1-18.5,11.1-26.1c0.3-0.4,0.6-0.7,0.9-1.1c10.4-12.5,25.9-19.5,42.2-19.5L893.7,149.7z"/>
		<path class="st5" d="M893.7,149.7v6.3c-15.2,0-29.8,5-41.3,14.1c-11.1,8.9-18.5,21.1-20.8,34.3l0,0.1c-0.1,0.6-0.2,1.2-0.3,1.8
			v0.1l0,0.3l-0.1,1l0,0.1l-78.1,544.1l-6.2-1.1l-0.4-0.1l-0.5-0.1c-65.3-14.5-60.5-89.3-60.5-89.3L180,662.5c0-0.2,0.6-7.5,0.6-7.5
			h511.6l-0.4,6.7c0,0.2-1,18,5.6,37.2c8.5,24.8,25.8,40.3,50.5,45.7l77.3-538.6c0,0,0,0,0,0c0.1-0.8,0.2-1.6,0.3-2.4c0,0,0,0,0,0
			C830.5,173,859.1,149.7,893.7,149.7z"/>
		<g>
			<g>
				<polygon class="st6" points="503.6,211.9 497.9,250.4 492.3,289 386.2,288.7 391.8,250.1 397.4,211.6 				"/>
				<polygon class="st7" points="452.8,558.6 441.5,635.6 335.4,635.4 346.7,558.3 				"/>
				<polygon class="st6" points="469.7,443 464.1,481.6 458.5,520.1 352.3,519.8 358,481.3 363.6,442.7 				"/>
				<polygon class="st6" points="486.7,327.5 481,366 475.4,404.5 369.2,404.2 374.9,365.7 380.5,327.2 				"/>
				<polygon class="st8" points="735.7,212.6 731.9,238.6 547.7,238.1 551.5,212 				"/>
				<polygon class="st8" points="728.3,262.8 724.4,289.6 540.2,289.1 544.2,262.3 				"/>
				<polygon class="st8" points="718.8,328.1 714.9,354.5 530.7,354 534.6,327.6 				"/>
				<polygon class="st8" points="711.4,378.7 707.5,405.2 523.3,404.7 527.2,378.2 				"/>
				<polygon class="st8" points="701.9,443.7 698,470.1 513.8,469.6 517.7,443.2 				"/>
				<polygon class="st8" points="694.5,494.3 690.6,520.7 506.4,520.2 510.3,493.8 				"/>
				<polygon class="st8" points="684.9,559.2 681.1,585.7 496.9,585.2 500.8,558.7 				"/>
				<polygon class="st8" points="677.5,609.9 673.7,636.3 489.5,635.8 493.3,609.4 				"/>
				<polygon class="st9" points="506.1,214.9 500.4,253.5 494.8,292 388.7,291.7 386.2,288.7 492.3,289 503.6,211.9 				"/>
				<polygon class="st9" points="489.2,330.5 483.5,369 477.9,407.6 371.7,407.3 369.2,404.2 475.4,404.5 486.7,327.5 				"/>
				<polygon class="st9" points="472.2,446.1 466.6,484.6 461,523.1 354.8,522.8 352.3,519.8 458.5,520.1 469.7,443 				"/>
				<polygon class="st10" points="455.3,561.6 449.7,600.1 444,638.7 337.9,638.4 335.4,635.3 441.5,635.6 452.8,558.6 				"/>
				<polygon class="st11" points="738.3,215.9 734.4,241.7 550.1,240.5 547.7,238.1 731.9,238.6 735.7,212.6 				"/>
				<polygon class="st11" points="730.8,266.8 726.9,292.6 542.6,291.5 540.2,289.1 724.4,289.6 728.3,262.8 				"/>
				<polygon class="st11" points="721.3,331.8 717.4,357.6 533.1,356.4 530.7,354 714.9,354.5 718.8,328.2 				"/>
				<polygon class="st11" points="713.9,382.4 710,408.2 525.7,407.1 523.3,404.7 707.5,405.2 711.4,378.7 				"/>
				<polygon class="st11" points="704.4,447.3 700.5,473.1 516.2,472 513.8,469.6 698,470.1 701.8,443.8 				"/>
				<polygon class="st11" points="697,497.9 693.1,523.8 508.8,522.6 506.4,520.2 690.6,520.7 694.5,494.3 				"/>
				<polygon class="st11" points="687.4,562.9 683.6,588.7 499.3,587.6 496.8,585.2 681.1,585.7 684.9,559.2 				"/>
				<polygon class="st11" points="680,613.5 676.2,639.3 491.9,638.2 489.4,635.8 673.7,636.3 677.5,610 				"/>
			</g>
			<g>
				<g>
					<polygon class="st8" points="479.1,238.9 427.4,274.2 405,242.9 417,234.3 423.7,243.6 431,253.9 470.8,226.8 					"/>
				</g>
				<g>
					<polygon class="st11" points="484.7,239.8 433,275 427.4,274.2 479.1,238.9 470.8,226.8 476.5,227.6 					"/>
				</g>
			</g>
			<g>
				<g>
					<polygon class="st8" points="463.5,353.9 411.7,389.1 389.4,357.9 401.4,349.3 408,358.6 415.3,368.9 455.2,341.7 					"/>
				</g>
				<g>
					<polygon class="st11" points="469.1,354.8 417.3,390 411.7,389.1 463.5,353.9 455.2,341.7 460.8,342.6 					"/>
				</g>
			</g>
			<g>
				<g>
					<polygon class="st8" points="446.5,468.9 394.8,504.1 372.5,472.8 384.4,464.3 391.1,473.6 398.4,483.8 438.3,456.7 					"/>
				</g>
				<g>
					<polygon class="st11" points="452.2,469.8 400.4,505 394.8,504.1 446.5,468.9 438.3,456.7 443.9,457.6 					"/>
				</g>
			</g>
		</g>
		<path class="st12" d="M751.7,751.7H240.5c-65.3-14.5-60.5-89.3-60.5-89.3h511.2C691.2,662.5,686.4,737.3,751.7,751.7z"/>
	</g>
	<g>
		
			<image style="overflow:visible;" width="528" height="410" xlink:href="C9D9ABF8.png"  transform="matrix(0.24 0 0 0.24 60.24 144.72)">
		</image>
		<polygon class="st13" points="332.6,514.8 323.5,611.4 299,623.1 220,565.7 		"/>
		
			<rect x="181.5" y="201.5" transform="matrix(0.9113 -0.4118 0.4118 0.9113 -137.7785 117.6434)" class="st14" width="45.3" height="354.1"/>
		
			<image style="overflow:visible;" width="755" height="1411" xlink:href="C9D9ABFE.png"  transform="matrix(0.24 0 0 0.24 151.68 192)">
		</image>
		
			<image style="overflow:visible;" width="761" height="1414" xlink:href="C9D9ABFA.png"  transform="matrix(0.24 0 0 0.24 73.92 226.56)">
		</image>
		<polygon class="st15" points="323.5,611.4 320.9,639.1 299,623.1 		"/>
	</g>
</g>
</svg>
